<?xml version="1.0" encoding="UTF-8" standalone="no"?>
<!-- Created with Inkscape (http://www.inkscape.org/) -->

<svg
   version="1.1"
   id="svg2"
   xml:space="preserve"
   width="533.33331"
   height="533.33331"
   viewBox="0 0 533.33331 533.33331"
   sodipodi:docname="5e82ca2b23f5bd8a0a381001f6b29a1b.ai"
   xmlns:inkscape="http://www.inkscape.org/namespaces/inkscape"
   xmlns:sodipodi="http://sodipodi.sourceforge.net/DTD/sodipodi-0.dtd"
   xmlns="http://www.w3.org/2000/svg"
   xmlns:svg="http://www.w3.org/2000/svg"><defs
     id="defs6"><clipPath
       clipPathUnits="userSpaceOnUse"
       id="clipPath16"><path
         d="M 0,400 H 400 V 0 H 0 Z"
         id="path14" /></clipPath></defs><sodipodi:namedview
     id="namedview4"
     pagecolor="#ffffff"
     bordercolor="#666666"
     borderopacity="1.0"
     inkscape:pageshadow="2"
     inkscape:pageopacity="0.0"
     inkscape:pagecheckerboard="0" /><g
     id="g8"
     inkscape:groupmode="layer"
     inkscape:label="5e82ca2b23f5bd8a0a381001f6b29a1b"
     transform="matrix(1.3333333,0,0,-1.3333333,0,533.33332)"><g
       id="g10"><g
         id="g12"
         clip-path="url(#clipPath16)"><g
           id="g18"
           transform="translate(174.9907,308.125)"><path
             d="m 0,0 c -46.372,0 -84.134,-37.744 -84.134,-84.116 0,-46.39 37.762,-84.144 84.134,-84.144 46.39,0 84.125,37.754 84.125,84.144 C 84.125,-37.744 46.39,0 0,0 m 150.385,31.444 c -19.018,0 -34.481,15.464 -34.481,34.471 0,19.009 15.463,34.472 34.481,34.472 19.007,0 34.471,-15.463 34.471,-34.472 0,-19.007 -15.464,-34.471 -34.471,-34.471 M 0,-229.813 c -80.327,0 -145.689,65.362 -145.689,145.697 0,80.327 65.362,145.689 145.689,145.689 80.335,0 145.698,-65.362 145.698,-145.689 0,-80.335 -65.363,-145.697 -145.698,-145.697 m 140.152,366.972 h -280.293 c -44.733,0 -81.134,-36.401 -81.134,-81.134 v -280.291 c 0,-44.743 36.401,-81.143 81.134,-81.143 h 280.293 c 44.741,0 81.141,36.4 81.141,81.143 V 56.025 c 0,44.733 -36.4,81.134 -81.141,81.134 M 0,0 c -46.372,0 -84.134,-37.744 -84.134,-84.116 0,-46.39 37.762,-84.144 84.134,-84.144 46.39,0 84.125,37.754 84.125,84.144 C 84.125,-37.744 46.39,0 0,0 m 0,0 c -46.372,0 -84.134,-37.744 -84.134,-84.116 0,-46.39 37.762,-84.144 84.134,-84.144 46.39,0 84.125,37.754 84.125,84.144 C 84.125,-37.744 46.39,0 0,0 m 0,0 c -46.372,0 -84.134,-37.744 -84.134,-84.116 0,-46.39 37.762,-84.144 84.134,-84.144 46.39,0 84.125,37.754 84.125,84.144 C 84.125,-37.744 46.39,0 0,0 m 150.385,31.444 c -19.018,0 -34.481,15.464 -34.481,34.471 0,19.009 15.463,34.472 34.481,34.472 19.007,0 34.471,-15.463 34.471,-34.472 0,-19.007 -15.464,-34.471 -34.471,-34.471 M 0,-229.813 c -80.327,0 -145.689,65.362 -145.689,145.697 0,80.327 65.362,145.689 145.689,145.689 80.335,0 145.698,-65.362 145.698,-145.689 0,-80.335 -65.363,-145.697 -145.698,-145.697 m 140.152,366.972 h -280.293 c -44.733,0 -81.134,-36.401 -81.134,-81.134 v -280.291 c 0,-44.743 36.401,-81.143 81.134,-81.143 h 280.293 c 44.741,0 81.141,36.4 81.141,81.143 V 56.025 c 0,44.733 -36.4,81.134 -81.141,81.134 M 0,0 c -46.372,0 -84.134,-37.744 -84.134,-84.116 0,-46.39 37.762,-84.144 84.134,-84.144 46.39,0 84.125,37.754 84.125,84.144 C 84.125,-37.744 46.39,0 0,0 m 0,0 c -46.372,0 -84.134,-37.744 -84.134,-84.116 0,-46.39 37.762,-84.144 84.134,-84.144 46.39,0 84.125,37.754 84.125,84.144 C 84.125,-37.744 46.39,0 0,0 m 0,0 c -46.372,0 -84.134,-37.744 -84.134,-84.116 0,-46.39 37.762,-84.144 84.134,-84.144 46.39,0 84.125,37.754 84.125,84.144 C 84.125,-37.744 46.39,0 0,0 m 150.385,31.444 c -19.018,0 -34.481,15.464 -34.481,34.471 0,19.009 15.463,34.472 34.481,34.472 19.007,0 34.471,-15.463 34.471,-34.472 0,-19.007 -15.464,-34.471 -34.471,-34.471 M 0,-229.813 c -80.327,0 -145.689,65.362 -145.689,145.697 0,80.327 65.362,145.689 145.689,145.689 80.335,0 145.698,-65.362 145.698,-145.689 0,-80.335 -65.363,-145.697 -145.698,-145.697 m 140.152,366.972 h -280.293 c -44.733,0 -81.134,-36.401 -81.134,-81.134 v -280.291 c 0,-44.743 36.401,-81.143 81.134,-81.143 h 280.293 c 44.741,0 81.141,36.4 81.141,81.143 V 56.025 c 0,44.733 -36.4,81.134 -81.141,81.134 M 282.85,-224.266 c 0,-78.697 -64.003,-142.7 -142.698,-142.7 h -280.293 c -78.688,0 -142.7,64.003 -142.7,142.7 V 56.025 c 0,78.688 64.012,142.7 142.7,142.7 h 280.293 c 78.695,0 142.698,-64.012 142.698,-142.7 z m -705.841,-282.859 h 846 v 846 h -846 z M 0,0 c -46.372,0 -84.134,-37.744 -84.134,-84.116 0,-46.39 37.762,-84.144 84.134,-84.144 46.39,0 84.125,37.754 84.125,84.144 C 84.125,-37.744 46.39,0 0,0 m 150.385,31.444 c -19.018,0 -34.481,15.464 -34.481,34.471 0,19.009 15.463,34.472 34.481,34.472 19.007,0 34.471,-15.463 34.471,-34.472 0,-19.007 -15.464,-34.471 -34.471,-34.471 M 0,-229.813 c -80.327,0 -145.689,65.362 -145.689,145.697 0,80.327 65.362,145.689 145.689,145.689 80.335,0 145.698,-65.362 145.698,-145.689 0,-80.335 -65.363,-145.697 -145.698,-145.697 m 140.152,366.972 h -280.293 c -44.733,0 -81.134,-36.401 -81.134,-81.134 v -280.291 c 0,-44.743 36.401,-81.143 81.134,-81.143 h 280.293 c 44.741,0 81.141,36.4 81.141,81.143 V 56.025 c 0,44.733 -36.4,81.134 -81.141,81.134 M 0,0 c -46.372,0 -84.134,-37.744 -84.134,-84.116 0,-46.39 37.762,-84.144 84.134,-84.144 46.39,0 84.125,37.754 84.125,84.144 C 84.125,-37.744 46.39,0 0,0 m 150.385,31.444 c -19.018,0 -34.481,15.464 -34.481,34.471 0,19.009 15.463,34.472 34.481,34.472 19.007,0 34.471,-15.463 34.471,-34.472 0,-19.007 -15.464,-34.471 -34.471,-34.471 M 0,-229.813 c -80.327,0 -145.689,65.362 -145.689,145.697 0,80.327 65.362,145.689 145.689,145.689 80.335,0 145.698,-65.362 145.698,-145.689 0,-80.335 -65.363,-145.697 -145.698,-145.697 m 140.152,366.972 h -280.293 c -44.733,0 -81.134,-36.401 -81.134,-81.134 v -280.291 c 0,-44.743 36.401,-81.143 81.134,-81.143 h 280.293 c 44.741,0 81.141,36.4 81.141,81.143 V 56.025 c 0,44.733 -36.4,81.134 -81.141,81.134 M 0,0 c -46.372,0 -84.134,-37.744 -84.134,-84.116 0,-46.39 37.762,-84.144 84.134,-84.144 46.39,0 84.125,37.754 84.125,84.144 C 84.125,-37.744 46.39,0 0,0 m 0,0 c -46.372,0 -84.134,-37.744 -84.134,-84.116 0,-46.39 37.762,-84.144 84.134,-84.144 46.39,0 84.125,37.754 84.125,84.144 C 84.125,-37.744 46.39,0 0,0"
             style="fill:#231f20;fill-opacity:1;fill-rule:nonzero;stroke:none"
             id="path20" /></g></g></g></g></svg>
