<?xml version="1.0" encoding="UTF-8" standalone="no"?>
<!-- Created with Inkscape (http://www.inkscape.org/) -->

<svg
   version="1.1"
   id="svg2"
   xml:space="preserve"
   width="206.45866"
   height="206.45866"
   viewBox="0 0 206.45866 206.45866"
   sodipodi:docname="4ecf1ad875b4ea6a9b87c178ae4ba5c2.eps"
   xmlns:inkscape="http://www.inkscape.org/namespaces/inkscape"
   xmlns:sodipodi="http://sodipodi.sourceforge.net/DTD/sodipodi-0.dtd"
   xmlns="http://www.w3.org/2000/svg"
   xmlns:svg="http://www.w3.org/2000/svg"><defs
     id="defs6" /><sodipodi:namedview
     id="namedview4"
     pagecolor="#ffffff"
     bordercolor="#666666"
     borderopacity="1.0"
     inkscape:pageshadow="2"
     inkscape:pageopacity="0.0"
     inkscape:pagecheckerboard="0" /><g
     id="g8"
     inkscape:groupmode="layer"
     inkscape:label="ink_ext_XXXXXX"
     transform="matrix(1.3333333,0,0,-1.3333333,0,206.45866)"><g
       id="g10"
       transform="scale(0.1)"><path
         d="m 1119.65,951.371 c 0.27,-7.601 0.42,-15.359 0.42,-23.152 0,-235.406 -179.191,-506.867 -507.019,-506.867 -100.649,0 -194.321,29.347 -273.176,80.07 13.992,-1.684 28.141,-2.582 42.488,-2.582 83.575,0 160.328,28.461 221.371,76.289 -77.961,1.519 -143.722,52.973 -166.41,123.801 10.801,-2.145 21.91,-3.196 33.485,-3.196 16.14,0 31.964,2.106 46.894,6.239 -81.469,16.293 -142.98,88.289 -142.98,174.632 0,0.782 0,1.52 0.156,2.301 23.894,-13.41 51.492,-21.324 80.73,-22.218 -47.832,31.808 -79.367,86.457 -79.367,148.282 0,32.59 8.848,63.19 24.09,89.54 87.824,-107.822 219.27,-178.768 367.238,-186.213 -3.039,13.098 -4.558,26.625 -4.558,40.656 0,98.347 79.793,178.147 178.179,178.147 51.301,0 97.569,-21.64 129.999,-56.17 40.66,7.91 78.9,22.68 113.32,43.23 -13.41,-41.71 -41.59,-76.6 -78.43,-98.67 36.1,4.25 70.52,13.84 102.32,27.99 -23.73,-35.63 -54.06,-66.968 -88.75,-92.109 z M 774.121,1548.44 C 347.316,1548.44 0,1201.08 0,774.281 0,347.32 347.316,0 774.121,0 c 426.959,0 774.319,347.32 774.319,774.281 0,426.799 -347.36,774.159 -774.319,774.159 v 0"
         style="fill:#231f20;fill-opacity:1;fill-rule:nonzero;stroke:none"
         id="path12" /></g></g></svg>
